<svg id="Layer_1" data-name="Layer 1" xmlns="http://www.w3.org/2000/svg" viewBox="0 0 100 100"><defs><style>.cls-1{fill:#fff;}.cls-2{fill:#777;}.cls-3{fill:#cbecef;}.cls-4{fill:#0bd;}</style></defs><title>bulb</title><path class="cls-1" d="M42.07,80.5c-.17-2.68-.82-8.28-3.38-11.62-.59-.77-1.37-1.65-2.27-2.66-4-4.47-9.92-11.21-9.92-19.81,0-2.35.66-22.91,23.5-22.91S73.5,44.06,73.5,46.41c0,8.6-6,15.34-9.92,19.81-.9,1-1.68,1.89-2.27,2.66-2.56,3.34-3.21,8.93-3.38,11.62Z"/><path class="cls-2" d="M50,25c21.38,0,22,19.22,22,21.41,0,8-5.74,14.52-9.54,18.81-.92,1-1.71,1.93-2.34,2.75-2.37,3.09-3.26,7.7-3.58,11H43.46c-.32-3.32-1.21-7.94-3.58-11-.63-.82-1.42-1.71-2.34-2.75C33.74,60.93,28,54.44,28,46.41,28,44.22,28.62,25,50,25m0-3C30.21,22,25,37.25,25,46.41c0,11.18,9.38,19.32,12.5,23.39,2.47,3.21,3,9,3.1,11.23a1,1,0,0,0,1,1H58.37a1,1,0,0,0,1-1c.11-2.28.63-8,3.1-11.23C65.62,65.73,75,57.59,75,46.41,75,37.25,69.79,22,50,22Z"/><path class="cls-3" d="M50,29C34.83,29,30.7,40.77,31.75,47.71,33,56,40.85,62.53,43.24,65.64a19.93,19.93,0,0,1,3.29,8.61.79.79,0,0,0,.8.75h5.35a.79.79,0,0,0,.79-.74,20,20,0,0,1,3.29-8.62C59.15,62.53,67,56,68.25,47.71,69.3,40.77,65.17,29,50,29Z"/><path class="cls-2" d="M58,86H42a1.5,1.5,0,0,1,0-3H58a1.5,1.5,0,0,1,0,3Z"/><path class="cls-4" d="M50,16a1.5,1.5,0,0,1-1.5-1.5V3.5a1.5,1.5,0,0,1,3,0v11A1.5,1.5,0,0,1,50,16Z"/><path class="cls-4" d="M37.52,18.17a1.51,1.51,0,0,1-1.3-.75L30.72,7.9a1.51,1.51,0,0,1,.55-2.05,1.49,1.49,0,0,1,2.05.55l5.5,9.52a1.49,1.49,0,0,1-.55,2A1.43,1.43,0,0,1,37.52,18.17Z"/><path class="cls-4" d="M62.48,18.17a1.43,1.43,0,0,1-.75-.2,1.49,1.49,0,0,1-.55-2l5.5-9.52a1.49,1.49,0,0,1,2-.55,1.51,1.51,0,0,1,.55,2.05l-5.5,9.52A1.51,1.51,0,0,1,62.48,18.17Z"/><path class="cls-2" d="M58,90H42a1.5,1.5,0,0,1,0-3H58a1.5,1.5,0,0,1,0,3Z"/><path class="cls-2" d="M55.18,94H44.82a1,1,0,0,1-1-.8l-.6-3a1,1,0,0,1,1-1.19H55.78a1,1,0,0,1,1,1.19l-.6,3A1,1,0,0,1,55.18,94Z"/><path class="cls-1" d="M35.27,43.45A1,1,0,0,1,34.38,42l.45-.9a1,1,0,0,1,1.79.9l-.45.9A1,1,0,0,1,35.27,43.45Z"/><path class="cls-1" d="M38,39a1,1,0,0,1-.61-.21,1,1,0,0,1-.18-1.4A15.72,15.72,0,0,1,45.8,32a1,1,0,0,1,.4,2,13.91,13.91,0,0,0-7.41,4.63A1,1,0,0,1,38,39Z"/></svg>