<svg id="Layer_1" data-name="Layer 1" xmlns="http://www.w3.org/2000/svg" viewBox="0 0 100 100"><defs><style>.cls-1{fill:#ccc;}.cls-2{fill:#ddd;}.cls-3{fill:#777;}.cls-4{fill:#fff;}.cls-5{fill:#cbecef;}</style></defs><title>desktop</title><path class="cls-1" d="M64.75,82H61.26l-2.67-9a2,2,0,0,0-2.08-2H43a2,2,0,0,0-2.08,2l-2.67,9H34.75a3,3,0,0,0-2.95,2.5H67.7A3,3,0,0,0,64.75,82Z"/><path class="cls-2" d="M31.8,84.5a2.73,2.73,0,0,0-.05.5v4a3,3,0,0,0,3,3h30a3,3,0,0,0,3-3V85a2.73,2.73,0,0,0,0-.5Z"/><path class="cls-1" d="M89.75,10.59V64a5,5,0,0,1-5,5H5.34a8,8,0,0,0,7.41,5h74a8,8,0,0,0,8-8V18A8,8,0,0,0,89.75,10.59Z"/><path class="cls-2" d="M89.75,64V10.59a7.9,7.9,0,0,0-3-.59h-74a8,8,0,0,0-8,8V66a7.9,7.9,0,0,0,.59,3H84.75A5,5,0,0,0,89.75,64Z"/><path class="cls-3" d="M86.75,13a5,5,0,0,1,5,5V66a5,5,0,0,1-5,5h-74a5,5,0,0,1-5-5V18a5,5,0,0,1,5-5h74m0-3h-74a8,8,0,0,0-8,8V66a8,8,0,0,0,8,8h74a8,8,0,0,0,8-8V18a8,8,0,0,0-8-8Z"/><path class="cls-3" d="M43.91,73h0m11.85,1,2.63,8.85A3,3,0,0,0,61.26,85h3.49v4h-30V85h3.49a3,3,0,0,0,2.87-2.15L43.74,74h12m.75-3H43a2,2,0,0,0-2.08,2l-2.67,9H34.75a3,3,0,0,0-3,3v4a3,3,0,0,0,3,3h30a3,3,0,0,0,3-3V85a3,3,0,0,0-3-3H61.26l-2.67-9a2,2,0,0,0-2.08-2Z"/><rect class="cls-4" x="13.25" y="18.5" width="73" height="47" rx="2.5"/><path class="cls-3" d="M83.75,20a1,1,0,0,1,1,1V63a1,1,0,0,1-1,1h-68a1,1,0,0,1-1-1V21a1,1,0,0,1,1-1h68m0-3h-68a4,4,0,0,0-4,4V63a4,4,0,0,0,4,4h68a4,4,0,0,0,4-4V21a4,4,0,0,0-4-4Z"/><path class="cls-5" d="M42,48a1,1,0,0,1-.71-.29,1,1,0,0,1,0-1.42l12-12a1,1,0,0,1,1.42,1.42l-12,12A1,1,0,0,1,42,48Z"/><path class="cls-5" d="M49,48a1,1,0,0,1-.71-.29,1,1,0,0,1,0-1.42l6-6a1,1,0,0,1,1.42,1.42l-6,6A1,1,0,0,1,49,48Z"/><path class="cls-4" d="M53.5,86.5h-11a1,1,0,0,1,0-2h11a1,1,0,0,1,0,2Z"/><path class="cls-4" d="M57.5,86.5h-1a1,1,0,0,1,0-2h1a1,1,0,0,1,0,2Z"/></svg>