<svg id="Layer_1" data-name="Layer 1" xmlns="http://www.w3.org/2000/svg" viewBox="0 0 100 100"><defs><style>.cls-1{fill:#fff;}.cls-2{fill:#ddd;}.cls-3{fill:#777;}</style></defs><title>handpointer</title><path class="cls-1" d="M71,86c4.5-3,7.1-27.31,6.6-38.42a5.11,5.11,0,0,0-.74-.15c-3.68-.52-4.55,2.31-5.26,2.08-1.57-.52-1-5.2-5.25-6.24S60.48,44.92,59,46.39c-.53.52,0-5.2-6.31-6.24-3.37-.56-6.1,2.64-6.83,4.48V11.55a7.35,7.35,0,0,0-14.7,0v48l-2-4.9c-1.16-2.91-4.18-9-9-8.45-5.8.7-6.24,7.37-4.75,11.1,0,0,6,18.28,13,29C38.21,87.17,66.07,89.29,71,86Z"/><path class="cls-2" d="M34.83,93.18c3.31,1.82,35.72,1,37.82,0S80,90.06,82.11,70.31c1.94-18.23-1.51-21.92-4.51-22.73C78.1,58.69,75.5,83,71,86c-4.93,3.29-32.79,1.17-42.59.31C30.5,89.48,32.68,92,34.83,93.18Z"/><path class="cls-3" d="M38.51,7.28a4.31,4.31,0,0,1,4.35,4.27V44.63a3,3,0,0,0,2.44,2.95,3.66,3.66,0,0,0,.57.05,3,3,0,0,0,2.79-1.9c.35-.9,1.82-2.64,3.25-2.64a1.51,1.51,0,0,1,.3,0c2.59.43,3.15,1.81,3.56,3.43.62,2.38,2.06,2.88,3.16,2.88a3.09,3.09,0,0,0,2.18-.9l.72-.75C63,46.54,63.53,46,64.57,46a4.83,4.83,0,0,1,1.06.14c1,.24,1.28.76,1.92,2.46.49,1.29,1.16,3.07,3.11,3.72a3.26,3.26,0,0,0,1,.16,3.92,3.92,0,0,0,2.84-1.39c.55-.54.8-.76,1.45-.76l.46,0c.56.08,1.42.2,2.19,2.27.83,2.23,1.59,7,.5,17.32-1.87,17.56-6,19.64-7.61,20.41-1.64.36-10.46.88-20.73.88-9.69,0-13.7-.48-14.59-.77C30.08,87,22,67.75,18.25,56.38a1.34,1.34,0,0,0-.07-.18,7.29,7.29,0,0,1,.15-5.69,2.64,2.64,0,0,1,2.18-1.32l.29,0c1.81,0,4,2.59,5.62,6.6l1.95,4.9a3,3,0,0,0,2.79,1.89,2.74,2.74,0,0,0,.56-.06,3,3,0,0,0,2.44-2.94v-48a4.31,4.31,0,0,1,4.35-4.27m0-3a7.33,7.33,0,0,0-7.35,7.27v48l-2-4.9c-1.1-2.78-3.91-8.49-8.4-8.49a4.82,4.82,0,0,0-.65,0c-5.8.7-6.24,7.37-4.75,11.1,0,0,10,30.67,19.43,35.87,1.44.8,8.4,1.1,16,1.1,9.82,0,20.68-.51,21.86-1.1,2.11-1,7.36-3.12,9.46-22.87S80,47.87,76.86,47.43a6.85,6.85,0,0,0-.88-.06c-2.82,0-3.66,2.15-4.29,2.15H71.6c-1.57-.52-1-5.2-5.25-6.24A7.43,7.43,0,0,0,64.57,43c-2.93,0-4.32,2.11-5.57,3.35l-.07,0c-.43,0-.21-5.27-6.24-6.27a5.12,5.12,0,0,0-.78-.06c-3,0-5.37,2.84-6,4.54V11.55a7.33,7.33,0,0,0-7.35-7.27Z"/></svg>