<svg id="Layer_1" data-name="Layer 1" xmlns="http://www.w3.org/2000/svg" viewBox="0 0 100 100"><defs><style>.cls-1{fill:#fff;}.cls-2{fill:#777;}.cls-3{fill:#cbecef;}.cls-4{fill:#666;}</style></defs><title>hourglass</title><path class="cls-1" d="M50,49.61a2.44,2.44,0,0,1-1.31-.38L31.58,38.58A6.52,6.52,0,0,1,28.5,33V13h43V33a6.52,6.52,0,0,1-3.08,5.58L51.31,49.23A2.44,2.44,0,0,1,50,49.61Z"/><path class="cls-2" d="M70,14.54V33a5.12,5.12,0,0,1-2.38,4.31L50.52,48a1,1,0,0,1-1,0L32.38,37.31A5.12,5.12,0,0,1,30,33V14.54H70m3-3H27V33a8,8,0,0,0,3.79,6.85L47.9,50.5a3.92,3.92,0,0,0,4.2,0L69.21,39.85A8,8,0,0,0,73,33V11.54Z"/><path class="cls-1" d="M28.5,87V67a6.52,6.52,0,0,1,3.08-5.58L48.69,50.77a2.45,2.45,0,0,1,2.62,0L68.42,61.42A6.52,6.52,0,0,1,71.5,67V87Z"/><path class="cls-2" d="M50,51.89a1.08,1.08,0,0,1,.52.15l17.1,10.65A5.12,5.12,0,0,1,70,67V85.46H30V67a5.12,5.12,0,0,1,2.38-4.31L49.48,52a1.08,1.08,0,0,1,.52-.15m0-3a4,4,0,0,0-2.1.61L30.79,60.15A8,8,0,0,0,27,67V88.46H73V67a8,8,0,0,0-3.79-6.85L52.1,49.5a4,4,0,0,0-2.1-.61Z"/><path class="cls-3" d="M34.5,82.15a1,1,0,0,1-1-1V68.62a5.05,5.05,0,0,1,2.39-4.31l12.78-7.73a2.55,2.55,0,0,1,2.66,0l12.78,7.73a5.05,5.05,0,0,1,2.39,4.31V81.15a1,1,0,0,1-1,1Z"/><path class="cls-4" d="M78,7v1a5,5,0,0,1-5,5H25a5,5,0,0,1-3.86-1.86A5,5,0,0,0,26,15.07H74a5,5,0,0,0,5-5V10A4.93,4.93,0,0,0,78,7Z"/><path class="cls-2" d="M25,13.07H73a5,5,0,0,0,5-5V7a5,5,0,0,0-4-2H26a5,5,0,0,0-5,5v.07a5.39,5.39,0,0,0,.14,1.14A5,5,0,0,0,25,13.07Z"/><path class="cls-4" d="M78,87v1a5,5,0,0,1-5,5H25a5,5,0,0,1-3.86-1.86A5,5,0,0,0,26,95H74a5,5,0,0,0,5-5v-.07A4.93,4.93,0,0,0,78,87Z"/><path class="cls-2" d="M25,93H73a5,5,0,0,0,5-5V87a5,5,0,0,0-4-2H26a5,5,0,0,0-5,5V90a5.39,5.39,0,0,0,.14,1.14A5,5,0,0,0,25,93Z"/><path class="cls-3" d="M41.64,37a1,1,0,0,0-.52,1.86l7.55,4.56a2.55,2.55,0,0,0,2.66,0l7.55-4.56A1,1,0,0,0,58.36,37Z"/><path class="cls-1" d="M38,74.5a1,1,0,0,1-1-1v-7a1,1,0,0,1,2,0v7A1,1,0,0,1,38,74.5Z"/><path class="cls-1" d="M38,78.5a1,1,0,0,1-1-1v-1a1,1,0,0,1,2,0v1A1,1,0,0,1,38,78.5Z"/></svg>