<svg id="Layer_1" data-name="Layer 1" xmlns="http://www.w3.org/2000/svg" viewBox="0 0 100 100"><defs><style>.cls-1{fill:#ccc;}.cls-2{fill:#ddd;}.cls-3{fill:#777;}.cls-4{fill:#fff;}</style></defs><title>keyboard</title><path class="cls-1" d="M89.75,28.63V63a4,4,0,0,1-4,4H5.34a8,8,0,0,0,7.41,5h74a8,8,0,0,0,8-8V36A8,8,0,0,0,89.75,28.63Z"/><path class="cls-2" d="M89.75,63V28.63a7.9,7.9,0,0,0-3-.59h-74a8,8,0,0,0-8,8V64a7.9,7.9,0,0,0,.59,3H85.75A4,4,0,0,0,89.75,63Z"/><path class="cls-3" d="M86.75,31a5,5,0,0,1,5,5V64a5,5,0,0,1-5,5h-74a5,5,0,0,1-5-5V36a5,5,0,0,1,5-5h74m0-3h-74a8,8,0,0,0-8,8V64a8,8,0,0,0,8,8h74a8,8,0,0,0,8-8V36a8,8,0,0,0-8-8Z"/><rect class="cls-4" x="46.75" y="44.66" width="6" height="34" rx="1" transform="translate(111.41 11.91) rotate(90)"/><rect class="cls-4" x="15.5" y="46.81" width="6" height="14" rx="1" transform="translate(72.31 35.31) rotate(90)"/><rect class="cls-4" x="11.66" y="58.5" width="6" height="6" rx="1" transform="translate(76.16 46.84) rotate(90)"/><rect class="cls-4" x="22.2" y="55.5" width="6" height="12" rx="1" transform="translate(86.7 36.3) rotate(90)"/><rect class="cls-4" x="27.25" y="50.81" width="6" height="6" rx="1" transform="translate(84.06 23.55) rotate(90)"/><rect class="cls-4" x="35.05" y="50.81" width="6" height="6" rx="1" transform="translate(91.86 15.76) rotate(90)"/><rect class="cls-4" x="42.85" y="50.81" width="6" height="6" rx="1" transform="translate(99.66 7.96) rotate(90)"/><rect class="cls-4" x="50.65" y="50.81" width="6" height="6" rx="1" transform="translate(107.46 0.16) rotate(90)"/><rect class="cls-4" x="58.45" y="50.81" width="6" height="6" rx="1" transform="translate(115.26 -7.64) rotate(90)"/><rect class="cls-4" x="66.25" y="50.81" width="6" height="6" rx="1" transform="translate(123.05 -15.44) rotate(90)"/><rect class="cls-4" x="78" y="46.81" width="6" height="14" rx="1" transform="translate(134.81 -27.19) rotate(90)"/><rect class="cls-4" x="71.3" y="55.5" width="6" height="12" rx="1" transform="translate(135.8 -12.8) rotate(90)"/><rect class="cls-4" x="81.84" y="58.5" width="6" height="6" rx="1" transform="translate(146.34 -23.34) rotate(90)"/><rect class="cls-4" x="11.66" y="43.12" width="6" height="6" rx="1" transform="translate(60.77 31.46) rotate(90)"/><rect class="cls-4" x="19.45" y="43.12" width="6" height="6" rx="1" transform="translate(68.57 23.66) rotate(90)"/><rect class="cls-4" x="27.25" y="43.12" width="6" height="6" rx="1" transform="translate(76.37 15.86) rotate(90)"/><rect class="cls-4" x="35.05" y="43.12" width="6" height="6" rx="1" transform="translate(84.17 8.06) rotate(90)"/><rect class="cls-4" x="42.85" y="43.12" width="6" height="6" rx="1" transform="translate(91.97 0.27) rotate(90)"/><rect class="cls-4" x="50.65" y="43.12" width="6" height="6" rx="1" transform="translate(99.77 -7.53) rotate(90)"/><rect class="cls-4" x="58.45" y="43.12" width="6" height="6" rx="1" transform="translate(107.56 -15.33) rotate(90)"/><rect class="cls-4" x="66.25" y="43.12" width="6" height="6" rx="1" transform="translate(115.36 -23.13) rotate(90)"/><rect class="cls-4" x="74.05" y="43.12" width="6" height="6" rx="1" transform="translate(123.16 -30.93) rotate(90)"/><rect class="cls-4" x="81.84" y="43.12" width="6" height="6" rx="1" transform="translate(130.96 -38.73) rotate(90)"/><rect class="cls-4" x="11.66" y="35.42" width="6" height="6" rx="1" transform="translate(53.08 23.77) rotate(90)"/><rect class="cls-4" x="19.45" y="35.42" width="6" height="6" rx="1" transform="translate(60.88 15.97) rotate(90)"/><rect class="cls-4" x="27.25" y="35.42" width="6" height="6" rx="1" transform="translate(68.68 8.17) rotate(90)"/><rect class="cls-4" x="35.05" y="35.42" width="6" height="6" rx="1" transform="translate(76.48 0.37) rotate(90)"/><rect class="cls-4" x="42.85" y="35.42" width="6" height="6" rx="1" transform="translate(84.28 -7.43) rotate(90)"/><rect class="cls-4" x="50.65" y="35.42" width="6" height="6" rx="1" transform="translate(92.07 -15.22) rotate(90)"/><rect class="cls-4" x="58.45" y="35.42" width="6" height="6" rx="1" transform="translate(99.87 -23.02) rotate(90)"/><rect class="cls-4" x="66.25" y="35.42" width="6" height="6" rx="1" transform="translate(107.67 -30.82) rotate(90)"/><rect class="cls-4" x="74.05" y="35.42" width="6" height="6" rx="1" transform="translate(115.47 -38.62) rotate(90)"/><rect class="cls-4" x="81.84" y="35.42" width="6" height="6" rx="1" transform="translate(123.27 -46.42) rotate(90)"/></svg>