<svg id="Layer_1" data-name="Layer 1" xmlns="http://www.w3.org/2000/svg" viewBox="0 0 100 100"><defs><style>.cls-1{fill:#ddd;}.cls-2{fill:#ccc;}.cls-3{fill:#777;}.cls-4{fill:#fff;}</style></defs><title>lock</title><path class="cls-1" d="M68.5,29.5C68.06,24.69,65.33,13.77,52,5.08,51.31,5,50.66,5,50,5A26,26,0,0,0,24,30h0V67H38V33.87h0C38.25,26.16,43.53,20,50,20s11.75,6.16,12,13.87h0V67h6.53C68.64,59,68.92,34.1,68.5,29.5Z"/><path class="cls-2" d="M76,30h0A26,26,0,0,0,52,5.08C65.33,13.77,68.06,24.69,68.5,29.5c.42,4.6.14,29.48,0,37.5H76Z"/><path class="cls-3" d="M50,8A22.92,22.92,0,0,1,73,30.11a2.46,2.46,0,0,0,0,.28V64H65V33.87c0-.13,0-.26,0-.38C64.56,24.22,58,17,50,17S35.44,24.22,35,33.48c0,.13,0,.26,0,.39V64H27V30.39a2.46,2.46,0,0,0,0-.28A22.92,22.92,0,0,1,50,8m0-3A26,26,0,0,0,24,30h0V67H38V33.87h0C38.25,26.16,43.53,20,50,20s11.75,6.16,12,13.87h0V67H76V30h0A26,26,0,0,0,50,5Z"/><path class="cls-2" d="M83,39.07V82a6,6,0,0,1-6,6H10.07A8,8,0,0,0,18,95H82a8,8,0,0,0,8-8V47A8,8,0,0,0,83,39.07Z"/><path class="cls-1" d="M83,82V39.07A8.26,8.26,0,0,0,82,39H18a8,8,0,0,0-8,8V87a8.26,8.26,0,0,0,.07,1H77A6,6,0,0,0,83,82Z"/><path class="cls-3" d="M82,42a5,5,0,0,1,5,5V87a5,5,0,0,1-5,5H18a5,5,0,0,1-5-5V47a5,5,0,0,1,5-5H82m0-3H18a8,8,0,0,0-8,8V87a8,8,0,0,0,8,8H82a8,8,0,0,0,8-8V47a8,8,0,0,0-8-8Z"/><path class="cls-3" d="M57,61a7,7,0,0,0-7.1-7A7.09,7.09,0,0,0,43,60.92a7,7,0,0,0,3.74,6.27,1,1,0,0,1,.47,1.13L44.7,77.47A2,2,0,0,0,46.62,80h6.76a2,2,0,0,0,1.92-2.53l-2.51-9.15a1,1,0,0,1,.48-1.14A7,7,0,0,0,57,61Z"/><path class="cls-4" d="M18,63.5a1,1,0,0,1-1-1v-11a1,1,0,0,1,2,0v11A1,1,0,0,1,18,63.5Z"/><path class="cls-4" d="M18,69.5a1,1,0,0,1-1-1v-1a1,1,0,0,1,2,0v1A1,1,0,0,1,18,69.5Z"/><path class="cls-4" d="M18,49.5a1,1,0,0,1-1-1v-1a1,1,0,0,1,2,0v1A1,1,0,0,1,18,49.5Z"/></svg>