<svg id="Layer_1" data-name="Layer 1" xmlns="http://www.w3.org/2000/svg" viewBox="0 0 100 100"><defs><style>.cls-1{fill:#ccc;}.cls-2{fill:#ddd;}.cls-3{fill:#777;}.cls-4{fill:#fff;}.cls-5{fill:#cbecef;}.cls-6{fill:#0bd;}</style></defs><title>screen</title><path class="cls-1" d="M89.57,15.43A8.1,8.1,0,0,1,90,18v8H5v5H95V23A8,8,0,0,0,89.57,15.43Z"/><path class="cls-2" d="M90,18a8.1,8.1,0,0,0-.43-2.57A8.1,8.1,0,0,0,87,15H13a8,8,0,0,0-8,8v3H90Z"/><path class="cls-3" d="M87,18a5,5,0,0,1,5,5v5H8V23a5,5,0,0,1,5-5H87m0-3H13a8,8,0,0,0-8,8v8H95V23a8,8,0,0,0-8-8Z"/><path class="cls-4" d="M13,83.5A6.51,6.51,0,0,1,6.5,77V29.5h87V77A6.51,6.51,0,0,1,87,83.5Z"/><path class="cls-3" d="M92,31V77a5,5,0,0,1-5,5H13a5,5,0,0,1-5-5V31H92m3-3H5V77a8,8,0,0,0,8,8H87a8,8,0,0,0,8-8V28Z"/><path class="cls-5" d="M13,35a1,1,0,0,0-1,1V73.58C12,77.1,13.09,78,16.81,78H83.19c3.72,0,4.81-.9,4.81-4.42V36a1,1,0,0,0-1-1Z"/><circle class="cls-6" cx="14" cy="23" r="2"/><circle class="cls-6" cx="20" cy="23" r="2"/><circle class="cls-6" cx="26" cy="23" r="2"/><path class="cls-4" d="M69.5,73a1,1,0,0,1-.71-.29,1,1,0,0,1,0-1.42l12-12a1,1,0,0,1,1.42,1.42l-12,12A1,1,0,0,1,69.5,73Z"/><path class="cls-4" d="M76.5,73a1,1,0,0,1-.71-.29,1,1,0,0,1,0-1.42l6-6a1,1,0,0,1,1.42,1.42l-6,6A1,1,0,0,1,76.5,73Z"/><path class="cls-4" d="M84,22H73a1,1,0,0,1,0-2H84a1,1,0,0,1,0,2Z"/><path class="cls-4" d="M88,22H87a1,1,0,0,1,0-2h1a1,1,0,0,1,0,2Z"/></svg>