<svg id="Layer_1" data-name="Layer 1" xmlns="http://www.w3.org/2000/svg" viewBox="0 0 100 100"><defs><style>.cls-1{fill:#ccc;}.cls-2{fill:#ddd;}.cls-3{fill:#777;}.cls-4{fill:#3da9b7;}.cls-5{fill:#0bd;}.cls-6{fill:#fff;}</style></defs><title>server</title><path class="cls-1" d="M68.84,4.75v76a6,6,0,0,1-6,6h-40a8,8,0,0,0,8,8h38a8,8,0,0,0,8-8v-74A8,8,0,0,0,68.84,4.75Z"/><path class="cls-2" d="M68.84,80.75v-76h-38a8,8,0,0,0-8,8v74h40A6,6,0,0,0,68.84,80.75Z"/><rect class="cls-3" x="34.84" y="16" width="30" height="8" rx="2"/><rect class="cls-3" x="34.84" y="29" width="30" height="8" rx="2"/><rect class="cls-3" x="34.84" y="42" width="30" height="8" rx="2"/><path class="cls-4" d="M52.83,74a5,5,0,0,1-7,7,5,5,0,1,0,7-7Z"/><path class="cls-5" d="M53.84,77a5,5,0,0,0-1-3,5,5,0,0,0-7,7,5,5,0,0,0,8-4Z"/><path class="cls-3" d="M68.84,7.75a5,5,0,0,1,5,5v74a5,5,0,0,1-5,5h-38a5,5,0,0,1-5-5v-74a5,5,0,0,1,5-5h38m0-3h-38a8,8,0,0,0-8,8v74a8,8,0,0,0,8,8h38a8,8,0,0,0,8-8v-74a8,8,0,0,0-8-8Z"/><path class="cls-6" d="M29,26a1,1,0,0,1-1-1V15a1,1,0,0,1,2,0V25A1,1,0,0,1,29,26Z"/><path class="cls-6" d="M29,31a1,1,0,0,1-1-1V29a1,1,0,0,1,2,0v1A1,1,0,0,1,29,31Z"/></svg>