<svg id="Layer_1" data-name="Layer 1" xmlns="http://www.w3.org/2000/svg" viewBox="0 0 100 100"><defs><style>.cls-1{fill:#ccc;}.cls-2{fill:#ddd;}.cls-3{fill:#777;}.cls-4{fill:#fff;}.cls-5{fill:#cbecef;}</style></defs><title>smartphone</title><path class="cls-1" d="M73.73,5.42v74.7a6.86,6.86,0,0,1-6.92,6.76H21.65a6.38,6.38,0,0,1-1.08-.1,9.17,9.17,0,0,0,9.16,8H70.27a9.14,9.14,0,0,0,9.23-9v-72A9,9,0,0,0,73.73,5.42Z"/><path class="cls-2" d="M66.81,86.88a6.86,6.86,0,0,0,6.92-6.76V5.42a9.27,9.27,0,0,0-3.46-.67H29.73a9.14,9.14,0,0,0-9.23,9v72a8.76,8.76,0,0,0,.07,1,6.38,6.38,0,0,0,1.08.1Z"/><path class="cls-3" d="M71.5,7.75a5,5,0,0,1,5,5v74a5,5,0,0,1-5,5h-43a5,5,0,0,1-5-5v-74a5,5,0,0,1,5-5h43m0-3h-43a8,8,0,0,0-8,8v74a8,8,0,0,0,8,8h43a8,8,0,0,0,8-8v-74a8,8,0,0,0-8-8Z"/><rect class="cls-4" x="29.49" y="12.86" width="41.02" height="67.02" rx="2.51"/><path class="cls-3" d="M68,14.35a1,1,0,0,1,1,1v62a1,1,0,0,1-1,1H32a1,1,0,0,1-1-1v-62a1,1,0,0,1,1-1H68m0-3H32a4,4,0,0,0-4,4v62a4,4,0,0,0,4,4H68a4,4,0,0,0,4-4v-62a4,4,0,0,0-4-4Z"/><circle class="cls-3" cx="50" cy="86.03" r="3"/><path class="cls-5" d="M42.5,53.28a1,1,0,0,1-.7-1.71l13.85-13.5A1,1,0,1,1,57,39.5L43.2,53A1,1,0,0,1,42.5,53.28Z"/><path class="cls-5" d="M50.58,53.28a1,1,0,0,1-.72-.3,1,1,0,0,1,0-1.41l6.92-6.75a1,1,0,1,1,1.4,1.43L51.28,53A1,1,0,0,1,50.58,53.28Z"/><path class="cls-4" d="M67.23,87H58.54a1,1,0,1,1,0-2h8.69a1,1,0,0,1,0,2Z"/><path class="cls-4" d="M71.85,87H70.69a1,1,0,0,1,0-2h1.16a1,1,0,0,1,0,2Z"/></svg>