<svg id="Layer_1" data-name="Layer 1" xmlns="http://www.w3.org/2000/svg" viewBox="0 0 100 100"><defs><style>.cls-1{fill:#cbecef;}.cls-2{fill:#ccc;}.cls-3{fill:#fff;}.cls-4{fill:#777;}.cls-5{fill:#3da9b7;}.cls-6{fill:#0bd;}</style></defs><title>website</title><path class="cls-1" d="M88,12.92a8,8,0,0,0-8-8H20a8,8,0,0,0-8,8V17.5H88Z"/><path class="cls-2" d="M12,83v3.92a8,8,0,0,0,8,8H80a8,8,0,0,0,8-8V83Z"/><rect class="cls-3" x="12" y="17.5" width="76" height="65.5"/><path class="cls-4" d="M80,7.92a5,5,0,0,1,5,5v74a5,5,0,0,1-5,5H20a5,5,0,0,1-5-5v-74a5,5,0,0,1,5-5H80m0-3H20a8,8,0,0,0-8,8v74a8,8,0,0,0,8,8H80a8,8,0,0,0,8-8v-74a8,8,0,0,0-8-8Z"/><path class="cls-5" d="M33.42,14.07H19.19a1,1,0,0,1,0-2H33.42a1,1,0,0,1,0,2Z"/><path class="cls-4" d="M62.14,88.18H37.86a1,1,0,0,1,0-2H62.14a1,1,0,0,1,0,2Z"/><path class="cls-5" d="M34.92,75.54H19a1,1,0,0,1,0-2H34.92a1,1,0,0,1,0,2Z"/><path class="cls-5" d="M25.54,79.28H19a1,1,0,0,1,0-2h6.54a1,1,0,0,1,0,2Z"/><path class="cls-5" d="M71.89,49.56H28.11a1,1,0,0,1,0-2H71.89a1,1,0,0,1,0,2Z"/><path class="cls-5" d="M63.79,53.66H36.21a1,1,0,0,1,0-2H63.79a1,1,0,0,1,0,2Z"/><rect class="cls-6" x="18" y="20.35" width="64" height="24" rx="2"/><path class="cls-5" d="M79,20.35v19a2,2,0,0,1-2,2H18v1a2,2,0,0,0,2,2H80a2,2,0,0,0,2-2v-20a2,2,0,0,0-2-2Z"/><rect class="cls-6" x="18" y="59.61" width="18" height="12" rx="1"/><path class="cls-5" d="M57.92,75.54H42a1,1,0,0,1,0-2H57.92a1,1,0,0,1,0,2Z"/><path class="cls-5" d="M48.54,79.28H42a1,1,0,0,1,0-2h6.54a1,1,0,0,1,0,2Z"/><rect class="cls-6" x="41" y="59.61" width="18" height="12" rx="1"/><path class="cls-5" d="M80.92,75.54H65a1,1,0,0,1,0-2H80.92a1,1,0,0,1,0,2Z"/><path class="cls-5" d="M71.54,79.28H65a1,1,0,0,1,0-2h6.54a1,1,0,0,1,0,2Z"/><rect class="cls-6" x="64" y="59.61" width="18" height="12" rx="1"/><path class="cls-5" d="M81.3,14.06H53.71a1,1,0,1,1,0-2H81.3a1,1,0,0,1,0,2Z"/><path class="cls-1" d="M43.5,38a1,1,0,0,1-.71-.29,1,1,0,0,1,0-1.42l12-12a1,1,0,0,1,1.42,1.42l-12,12A1,1,0,0,1,43.5,38Z"/><path class="cls-1" d="M50.5,38a1,1,0,0,1-.71-.29,1,1,0,0,1,0-1.42l6-6a1,1,0,0,1,1.42,1.42l-6,6A1,1,0,0,1,50.5,38Z"/></svg>