<svg id="Layer_1" data-name="Layer 1" xmlns="http://www.w3.org/2000/svg" viewBox="0 0 100 100"><defs><style>.cls-1{fill:#ddd;}.cls-2{fill:#fff;}.cls-3{fill:#777;}.cls-4{fill:#ccc;}</style></defs><title>file</title><path class="cls-1" d="M76,10.07V77a6,6,0,0,1-6,6H17.07A8,8,0,0,0,25,90H75a8,8,0,0,0,8-8V18A8,8,0,0,0,76,10.07Z"/><path class="cls-2" d="M76,77V10.07A8.26,8.26,0,0,0,75,10H37.48a6,6,0,0,0-4.24,1.76L18.76,26.24A6,6,0,0,0,17,30.49V82a8.26,8.26,0,0,0,.07,1H70A6,6,0,0,0,76,77Z"/><path class="cls-3" d="M75,13a5,5,0,0,1,5,5V82a5,5,0,0,1-5,5H25a5,5,0,0,1-5-5V30.49a3,3,0,0,1,.88-2.13L35.37,13.88A2.93,2.93,0,0,1,37.48,13H75m0-3H37.48a6,6,0,0,0-4.24,1.76L18.76,26.24A6,6,0,0,0,17,30.49V82a8,8,0,0,0,8,8H75a8,8,0,0,0,8-8V18a8,8,0,0,0-8-8Z"/><path class="cls-3" d="M31.28,32H23.5a1.5,1.5,0,0,1,0-3h7.78A4.73,4.73,0,0,0,36,24.28V16.5a1.5,1.5,0,0,1,3,0v7.78A7.72,7.72,0,0,1,31.28,32Z"/><path class="cls-4" d="M68,52H32a2,2,0,0,1,0-4H68a2,2,0,0,1,0,4Z"/><path class="cls-4" d="M68,62H32a2,2,0,0,1,0-4H68a2,2,0,0,1,0,4Z"/><path class="cls-4" d="M58,72H32a2,2,0,0,1,0-4H58a2,2,0,0,1,0,4Z"/><path class="cls-4" d="M68,42H32a2,2,0,0,1,0-4H68a2,2,0,0,1,0,4Z"/></svg>