<svg id="Layer_1" data-name="Layer 1" xmlns="http://www.w3.org/2000/svg" viewBox="0 0 100 100"><defs><style>.cls-1{fill:#0bd;}.cls-2{fill:#777;}.cls-3{fill:#cbecef;}.cls-4{fill:#fff;}</style></defs><title>folder</title><path class="cls-1" d="M12,83.5A5.51,5.51,0,0,1,6.5,78V23A6.51,6.51,0,0,1,13,16.5H36.63a6.49,6.49,0,0,1,5.47,3l2.19,3.41a3.48,3.48,0,0,0,2.94,1.61H88A5.51,5.51,0,0,1,93.5,30V78A5.51,5.51,0,0,1,88,83.5Z"/><path class="cls-2" d="M36.63,18a5,5,0,0,1,4.21,2.3L43,23.7a5,5,0,0,0,4.2,2.3H88a4,4,0,0,1,4,4V78a4,4,0,0,1-4,4H12a4,4,0,0,1-4-4V23a5,5,0,0,1,5-5H36.63m0-3H13a8,8,0,0,0-8,8V78a7,7,0,0,0,7,7H88a7,7,0,0,0,7-7V30a7,7,0,0,0-7-7H47.23a2,2,0,0,1-1.68-.92l-2.19-3.41A8,8,0,0,0,36.63,15Z"/><rect class="cls-3" x="6.5" y="32.5" width="87" height="51" rx="6.5"/><path class="cls-2" d="M87,34a5,5,0,0,1,5,5V77a5,5,0,0,1-5,5H13a5,5,0,0,1-5-5V39a5,5,0,0,1,5-5H87m0-3H13a8,8,0,0,0-8,8V77a8,8,0,0,0,8,8H87a8,8,0,0,0,8-8V39a8,8,0,0,0-8-8Z"/><path class="cls-4" d="M74,78a1,1,0,0,1-.71-.29,1,1,0,0,1,0-1.42l12-12a1,1,0,0,1,1.42,1.42l-12,12A1,1,0,0,1,74,78Z"/><path class="cls-4" d="M81,78a1,1,0,0,1-.71-.29,1,1,0,0,1,0-1.42l6-6a1,1,0,0,1,1.42,1.42l-6,6A1,1,0,0,1,81,78Z"/></svg>