<svg id="Layer_1" data-name="Layer 1" xmlns="http://www.w3.org/2000/svg" viewBox="0 0 100 100"><defs><style>.cls-1{fill:#ccc;}.cls-2{fill:#ddd;}.cls-3{fill:#fff;}.cls-4{fill:#777;}.cls-5{fill:#cbecef;}</style></defs><title>laptop</title><path class="cls-1" d="M84,22.59V68a4,4,0,0,1-4,4H11.26A8,8,0,0,0,19,78H81a8,8,0,0,0,8-8V30A8,8,0,0,0,84,22.59Z"/><path class="cls-2" d="M84,68V22.59A7.9,7.9,0,0,0,81,22H19a8,8,0,0,0-8,8V70a8.24,8.24,0,0,0,.26,2H80A4,4,0,0,0,84,68Z"/><rect class="cls-3" x="19.43" y="30.12" width="61.13" height="39.76" rx="2.5"/><path class="cls-4" d="M78.07,31.62a1,1,0,0,1,1,1V67.38a1,1,0,0,1-1,1H21.93a1,1,0,0,1-1-1V32.62a1,1,0,0,1,1-1H78.07m0-3H21.93a4,4,0,0,0-4,4V67.38a4,4,0,0,0,4,4H78.07a4,4,0,0,0,4-4V32.62a4,4,0,0,0-4-4Z"/><path class="cls-4" d="M81,25a5,5,0,0,1,5,5V70a5,5,0,0,1-5,5H19a5,5,0,0,1-5-5V30a5,5,0,0,1,5-5H81m0-3H19a8,8,0,0,0-8,8V70a8,8,0,0,0,8,8H81a8,8,0,0,0,8-8V30a8,8,0,0,0-8-8Z"/><path class="cls-1" d="M92,74.4A5,5,0,0,1,87,79H7a5.12,5.12,0,0,1-2-.4c0,.13,0,.26,0,.4a5,5,0,0,0,5,5H90a5,5,0,0,0,2-9.6Z"/><path class="cls-2" d="M87,79a5,5,0,0,0,5-4.6,5.12,5.12,0,0,0-2-.4H10a5,5,0,0,0-5,4.6A5.12,5.12,0,0,0,7,79Z"/><path class="cls-4" d="M90,77a2,2,0,0,1,0,4H10a2,2,0,0,1,0-4H90m0-3H10a5,5,0,0,0,0,10H90a5,5,0,0,0,0-10Z"/><path class="cls-3" d="M22,80H11a1,1,0,0,1,0-2H22a1,1,0,0,1,0,2Z"/><path class="cls-3" d="M26,80H25a1,1,0,0,1,0-2h1a1,1,0,0,1,0,2Z"/><path class="cls-5" d="M42,56a1,1,0,0,1-.71-.29,1,1,0,0,1,0-1.42l12-12a1,1,0,0,1,1.42,1.42l-12,12A1,1,0,0,1,42,56Z"/><path class="cls-5" d="M49,56a1,1,0,0,1-.71-.29,1,1,0,0,1,0-1.42l6-6a1,1,0,0,1,1.42,1.42l-6,6A1,1,0,0,1,49,56Z"/></svg>