<svg id="Layer_1" data-name="Layer 1" xmlns="http://www.w3.org/2000/svg" viewBox="0 0 100 100"><defs><style>.cls-1{fill:#ddd;}.cls-2{fill:#fff;}.cls-3{fill:#777;}.cls-4{fill:#cbecef;}</style></defs><title>mail</title><path class="cls-1" d="M88,20.07V67a6,6,0,0,1-6,6H5.07A8,8,0,0,0,13,80H87a8,8,0,0,0,8-8V28A8,8,0,0,0,88,20.07Z"/><path class="cls-2" d="M88,67V20.07A8.26,8.26,0,0,0,87,20H13a8,8,0,0,0-8,8V72a8.26,8.26,0,0,0,.07,1H82A6,6,0,0,0,88,67Z"/><path class="cls-3" d="M87,23a5,5,0,0,1,5,5V72a5,5,0,0,1-5,5H13a5,5,0,0,1-5-5V28a5,5,0,0,1,5-5H87m0-3H13a8,8,0,0,0-8,8V72a8,8,0,0,0,8,8H87a8,8,0,0,0,8-8V28a8,8,0,0,0-8-8Z"/><path class="cls-3" d="M50.88,60.39a9.43,9.43,0,0,1-5.17-1.54l-.1-.07L13.08,33.69a1.5,1.5,0,0,1,1.84-2.38L47.39,56.37a6.49,6.49,0,0,0,7.11-.09L85.05,31.34A1.5,1.5,0,0,1,87,33.66l-30.6,25-.1.08A9.51,9.51,0,0,1,50.88,60.39Z"/><path class="cls-3" d="M15,69.5a1.5,1.5,0,0,1-.86-2.73l23-16a1.5,1.5,0,0,1,1.72,2.46l-23,16A1.51,1.51,0,0,1,15,69.5Z"/><path class="cls-3" d="M86,69.5a1.51,1.51,0,0,1-.86-.27l-23-16a1.5,1.5,0,1,1,1.72-2.46l23,16A1.5,1.5,0,0,1,86,69.5Z"/><path class="cls-4" d="M43.5,42a1,1,0,0,1-.71-.29,1,1,0,0,1,0-1.42l12-12a1,1,0,0,1,1.42,1.42l-12,12A1,1,0,0,1,43.5,42Z"/><path class="cls-4" d="M50.5,42a1,1,0,0,1-.71-.29,1,1,0,0,1,0-1.42l6-6a1,1,0,0,1,1.42,1.42l-6,6A1,1,0,0,1,50.5,42Z"/></svg>