<svg id="Layer_1" data-name="Layer 1" xmlns="http://www.w3.org/2000/svg" viewBox="0 0 100 100"><defs><style>.cls-1{fill:#fff;}.cls-2{fill:#ddd;}.cls-3{fill:#777;}.cls-4{fill:#ccc;}.cls-5{fill:none;}.cls-6{fill:#3da9b7;}.cls-7{fill:#0bd;}</style></defs><title>printer</title><path class="cls-1" d="M66.92,4.73H40.78a4.18,4.18,0,0,0-3,1.23L27.73,16.1a4.17,4.17,0,0,0-1.23,3V33h46V10.33A5.59,5.59,0,0,0,66.92,4.73Z"/><path class="cls-2" d="M72.5,31V10.33a5.58,5.58,0,0,0-4.88-5.55V31Z"/><path class="cls-3" d="M66.92,7.73a2.59,2.59,0,0,1,2.58,2.6V31h-40V19.07a1.25,1.25,0,0,1,.35-.86L40,8.07a1.16,1.16,0,0,1,.83-.34H66.92m0-3H40.78a4.18,4.18,0,0,0-3,1.23L27.73,16.1a4.17,4.17,0,0,0-1.23,3V34h46V10.33a5.59,5.59,0,0,0-5.58-5.6Z"/><path class="cls-3" d="M37.35,20.18H32.92a1,1,0,0,1,0-2h4.43a2.55,2.55,0,0,0,2.54-2.56V11.18a1,1,0,0,1,2,0v4.44A4.56,4.56,0,0,1,37.35,20.18Z"/><path class="cls-4" d="M88,29.57V56.5a6,6,0,0,1-6,6H5.07a8,8,0,0,0,7.93,7H87a8,8,0,0,0,8-8v-24A8,8,0,0,0,88,29.57Z"/><path class="cls-2" d="M88,56.5V29.57a8.26,8.26,0,0,0-1-.07H13a8,8,0,0,0-8,8v24a8.26,8.26,0,0,0,.07,1H82A6,6,0,0,0,88,56.5Z"/><path class="cls-3" d="M87,32.5a5,5,0,0,1,5,5v24a5,5,0,0,1-5,5H13a5,5,0,0,1-5-5v-24a5,5,0,0,1,5-5H87m0-3H13a8,8,0,0,0-8,8v24a8,8,0,0,0,8,8H87a8,8,0,0,0,8-8v-24a8,8,0,0,0-8-8Z"/><path class="cls-5" d="M72.5,53V89.4A5.59,5.59,0,0,1,66.92,95H32.08a5.58,5.58,0,0,1-5.53-4.9,5.36,5.36,0,0,1-.05-.7V53.34c0-.11,0-.23,0-.34H19V99H84V53Z"/><path class="cls-2" d="M63.44,90.1H26.55A5.58,5.58,0,0,0,32.08,95H66.92a5.59,5.59,0,0,0,5.58-5.6V53H67.62V85.9A4.2,4.2,0,0,1,63.44,90.1Z"/><path class="cls-1" d="M26.5,89.4a5.36,5.36,0,0,0,.05.7H63.44a4.2,4.2,0,0,0,4.18-4.2V53H27.5a1,1,0,0,0-1,1Z"/><path class="cls-4" d="M62.05,65.5H37a1.5,1.5,0,0,1,0-3h25.1a1.5,1.5,0,0,1,0,3Z"/><path class="cls-4" d="M62.05,74H37a1.5,1.5,0,0,1,0-3h25.1a1.5,1.5,0,1,1,0,3Z"/><path class="cls-4" d="M55.08,82.5H37a1.5,1.5,0,0,1,0-3H55.08a1.5,1.5,0,0,1,0,3Z"/><path class="cls-6" d="M21,38a5,5,0,0,1-7,7,5,5,0,1,0,7-7Z"/><path class="cls-7" d="M22,41a5,5,0,0,0-1-3,5,5,0,0,0-7,7,5,5,0,0,0,8-4Z"/><path class="cls-3" d="M69.5,56V89.4A2.6,2.6,0,0,1,66.92,92H32.08a2.6,2.6,0,0,1-2.58-2.6V56h40m2-3h-44a1,1,0,0,0-1,1V89.4A5.59,5.59,0,0,0,32.08,95H66.92a5.59,5.59,0,0,0,5.58-5.6V54a1,1,0,0,0-1-1Z"/><path class="cls-1" d="M82,37H71a1,1,0,0,1,0-2H82a1,1,0,0,1,0,2Z"/><path class="cls-1" d="M86,37H85a1,1,0,0,1,0-2h1a1,1,0,0,1,0,2Z"/></svg>